<svg width="495" height="495" viewBox="0 0 495 495" fill="none" xmlns="http://www.w3.org/2000/svg">
<g clip-path="url(#clip0_319_13)">
<path d="M222.593 290.623C222.488 290.108 220.983 288.592 220.839 288.316C214.227 275.121 207.231 262.985 200.494 249.79C198.577 246.044 196.335 241.162 194.514 237.063C192.52 232.572 192.022 231.6 191.447 227.463C191.217 225.785 191.246 223.925 191.936 221.752L215.271 252.279C216.661 253.222 218.165 252.04 219.354 251.287C222.9 249.028 226.407 246.024 229.905 243.67C230.72 243.126 233.46 240.056 234.563 240.819L239.891 254.729C240.725 255.758 241.223 256.388 242.708 256.082C242.708 255.434 242.613 254.691 242.843 254.071C245.305 247.407 251.276 239.113 257.438 235.108C261.52 232.458 265.871 231.152 270.989 230.103C272.005 229.436 271.717 224.25 271.468 223.172C271.554 223.535 271.382 222.81 271.468 223.172C271.008 221.266 271.238 218.939 269.436 217.09C268.123 216.346 251.511 219.708 247.03 211.732C245.544 209.086 244.601 208.386 244.635 205.058C244.644 204.096 249.637 203.18 251.937 202.57C260.677 200.244 272.235 195.563 280.831 194.133C282.623 193.837 285.086 193.942 286.322 195.42C287.693 197.05 290.223 203.771 291.2 206.164C294.037 213.114 296.931 221.123 299.212 227.844C300.256 230.933 301.531 233.593 300.036 236.844C291.928 248.103 282.316 262.689 275.273 274.788C274.975 275.302 273.471 277.152 273.241 277.648C269.465 285.761 271.918 378.104 271.918 378.104H305V427.202H271.938V462H222.583V427.202H190V378.104H222.583V290.632L222.593 290.623Z" fill="#6C4574"/>
<path d="M78.0878 236.5C78.0878 143.44 153.487 68 246.498 68C339.508 68 414.907 143.44 414.907 236.5C414.907 293.642 386.478 344.141 343 374.61C342.6 376.522 342.833 404.082 343 417.623C408.4 383.404 453 315.135 453 236.5C453 123.558 360.995 32 247.5 32C134.005 32 42 123.558 42 236.5C42 315.135 86.5999 383.404 152 417.623V375.994C107.393 345.684 78.0878 294.516 78.0878 236.5Z" fill="#66AC21"/>
<path fill-rule="evenodd" clip-rule="evenodd" d="M281 350.553C335.165 335.842 375 286.323 375 227.5C375 157.084 317.916 100 247.5 100C177.084 100 120 157.084 120 227.5C120 286.323 159.835 335.842 214 350.553C214 350.553 214 315.5 214 311.5C214 307.5 205 285 205 285H160C149.245 265.611 145.632 253.929 142.5 232L179 205L165.5 162C179.998 145.076 190.005 138.094 210 128.5L247.5 155L284.5 128.5C304.568 139.138 315.046 146.21 331.5 162L316.5 205L352 232C349 254.613 345.55 266.244 336 285H291.5C291.5 285 280.5 308.5 280.5 311.5C280.5 314.5 281 350.553 281 350.553Z" fill="#C56287"/>
<path d="M193 215.5C194.064 219.268 211 239 212 239.5C213 240 222 233 222 232.154C222 231.308 205.5 205.808 204 205.154C202.5 204.5 191.936 211.732 193 215.5Z" fill="#6C4574"/>
<path d="M223.5 190.035C221.458 187.742 207.007 196.744 208.5 200.5C209.993 204.256 226 228.897 227 229.5C228 230.103 238.5 221.571 238.5 220.535C238.5 219.5 225.542 192.329 223.5 190.035Z" fill="#6C4574"/>
<path d="M241 212.5C241 212.5 230.485 188.38 229.5 185.5C228.515 182.62 245.858 175.111 248 178C250.142 180.889 255.125 197 255.125 197C248.921 197.759 245.574 198.427 240.625 201.5L241 212.5Z" fill="#6C4574"/>
<path d="M254 177.349C254.708 180.156 261 195.849 261 195.849C266.624 195.378 270.257 194.024 277.5 191.5C277.5 191.5 271.32 174.19 269.5 172C267.68 169.81 253.292 174.541 254 177.349Z" fill="#6C4574"/>
</g>
<defs>
<clipPath id="clip0_319_13">
<rect width="495" height="495" fill="white"/>
</clipPath>
</defs>
</svg>
