<!DOCTYPE svg PUBLIC "-//W3C//DTD SVG 1.1//EN" "http://www.w3.org/Graphics/SVG/1.1/DTD/svg11.dtd">
<!-- Uploaded to: SVG Repo, www.svgrepo.com, Transformed by: SVG Repo Mixer Tools -->
<svg width="800px" height="800px" viewBox="0 0 24 24" xmlns="http://www.w3.org/2000/svg" id="phone" class="icon glyph" fill="#000000">
<g id="SVGRepo_bgCarrier" stroke-width="0"/>
<g id="SVGRepo_tracerCarrier" stroke-linecap="round" stroke-linejoin="round"/>
<g id="SVGRepo_iconCarrier">
<path d="M21,15v3.93a2,2,0,0,1-2.29,2A18,18,0,0,1,3.14,5.29,2,2,0,0,1,5.13,3H9a1,1,0,0,1,1,.89,10.74,10.74,0,0,0,1,3.78,1,1,0,0,1-.42,1.26l-.86.49a1,1,0,0,0-.33,1.46,14.08,14.08,0,0,0,3.69,3.69,1,1,0,0,0,1.46-.33l.49-.86A1,1,0,0,1,16.33,13a10.74,10.74,0,0,0,3.78,1A1,1,0,0,1,21,15Z" style="fill:#000000"/>
</g>
</svg>